[2024-11-04 18:05:32,634] INFO: Video capture started with FPS: 0.0
[2024-11-04 18:05:32,668] INFO: Audio capture started.
[2024-11-04 18:05:32,668] INFO: Recording clip 1
[2024-11-04 18:05:32,669] ERROR: Failed to read frame from camera.
[2024-11-04 18:05:32,669] ERROR: No frames captured for clip 1
[2024-11-04 18:05:33,674] ERROR: FFmpeg error: ffmpeg version 4.4.2-0ubuntu0.22.04.1 Copyright (c) 2000-2021 the FFmpeg developers
  built with gcc 11 (Ubuntu 11.2.0-19ubuntu1)
  configuration: --prefix=/usr --extra-version=0ubuntu0.22.04.1 --toolchain=hardened --libdir=/usr/lib/x86_64-linux-gnu --incdir=/usr/include/x86_64-linux-gnu --arch=amd64 --enable-gpl --disable-stripping --enable-gnutls --enable-ladspa --enable-libaom --enable-libass --enable-libbluray --enable-libbs2b --enable-libcaca --enable-libcdio --enable-libcodec2 --enable-libdav1d --enable-libflite --enable-libfontconfig --enable-libfreetype --enable-libfribidi --enable-libgme --enable-libgsm --enable-libjack --enable-libmp3lame --enable-libmysofa --enable-libopenjpeg --enable-libopenmpt --enable-libopus --enable-libpulse --enable-librabbitmq --enable-librubberband --enable-libshine --enable-libsnappy --enable-libsoxr --enable-libspeex --enable-libsrt --enable-libssh --enable-libtheora --enable-libtwolame --enable-libvidstab --enable-libvorbis --enable-libvpx --enable-libwebp --enable-libx265 --enable-libxml2 --enable-libxvid --enable-libzimg --enable-libzmq --enable-libzvbi --enable-lv2 --enable-omx --enable-openal --enable-opencl --enable-opengl --enable-sdl2 --enable-pocketsphinx --enable-librsvg --enable-libmfx --enable-libdc1394 --enable-libdrm --enable-libiec61883 --enable-chromaprint --enable-frei0r --enable-libx264 --enable-shared
  libavutil      56. 70.100 / 56. 70.100
  libavcodec     58.134.100 / 58.134.100
  libavformat    58. 76.100 / 58. 76.100
  libavdevice    58. 13.100 / 58. 13.100
  libavfilter     7.110.100 /  7.110.100
  libswscale      5.  9.100 /  5.  9.100
  libswresample   3.  9.100 /  3.  9.100
  libpostproc    55.  9.100 / 55.  9.100
temp_video/video_1.avi: No such file or directory

[2024-11-04 18:05:33,686] INFO: Resources released. Exiting.
[2024-11-04 18:06:42,292] INFO: Video capture started with FPS: 30.0
[2024-11-04 18:06:42,332] INFO: Audio capture started.
[2024-11-04 18:06:42,333] INFO: Recording clip 1
[2024-11-04 18:06:44,010] INFO: Saved track to output/track_1/output_1.mp4
[2024-11-04 18:06:44,010] INFO: Recording clip 2
[2024-11-04 18:06:45,273] ERROR: FFmpeg error: ffmpeg version 4.4.2-0ubuntu0.22.04.1 Copyright (c) 2000-2021 the FFmpeg developers
  built with gcc 11 (Ubuntu 11.2.0-19ubuntu1)
  configuration: --prefix=/usr --extra-version=0ubuntu0.22.04.1 --toolchain=hardened --libdir=/usr/lib/x86_64-linux-gnu --incdir=/usr/include/x86_64-linux-gnu --arch=amd64 --enable-gpl --disable-stripping --enable-gnutls --enable-ladspa --enable-libaom --enable-libass --enable-libbluray --enable-libbs2b --enable-libcaca --enable-libcdio --enable-libcodec2 --enable-libdav1d --enable-libflite --enable-libfontconfig --enable-libfreetype --enable-libfribidi --enable-libgme --enable-libgsm --enable-libjack --enable-libmp3lame --enable-libmysofa --enable-libopenjpeg --enable-libopenmpt --enable-libopus --enable-libpulse --enable-librabbitmq --enable-librubberband --enable-libshine --enable-libsnappy --enable-libsoxr --enable-libspeex --enable-libsrt --enable-libssh --enable-libtheora --enable-libtwolame --enable-libvidstab --enable-libvorbis --enable-libvpx --enable-libwebp --enable-libx265 --enable-libxml2 --enable-libxvid --enable-libzimg --enable-libzmq --enable-libzvbi --enable-lv2 --enable-omx --enable-openal --enable-opencl --enable-opengl --enable-sdl2 --enable-pocketsphinx --enable-librsvg --enable-libmfx --enable-libdc1394 --enable-libdrm --enable-libiec61883 --enable-chromaprint --enable-frei0r --enable-libx264 --enable-shared
  libavutil      56. 70.100 / 56. 70.100
  libavcodec     58.134.100 / 58.134.100
  libavformat    58. 76.100 / 58. 76.100
  libavdevice    58. 13.100 / 58. 13.100
  libavfilter     7.110.100 /  7.110.100
  libswscale      5.  9.100 /  5.  9.100
  libswresample   3.  9.100 /  3.  9.100
  libpostproc    55.  9.100 / 55.  9.100
Input #0, avi, from 'temp_video/video_2.avi':
  Metadata:
    software        : Lavf59.27.100
  Duration: 00:00:01.00, start: 0.000000, bitrate: 5458 kb/s
  Stream #0:0: Video: mpeg4 (Simple Profile) (XVID / 0x44495658), yuv420p, 640x480 [SAR 1:1 DAR 4:3], 5593 kb/s, 30 fps, 30 tbr, 30 tbn, 30 tbc
temp_audio/audio_2.wav: No such file or directory

[2024-11-04 18:08:56,003] INFO: Video capture started with FPS: 30.0
[2024-11-04 18:08:56,046] INFO: Audio capture started.
[2024-11-04 18:08:56,046] INFO: Recording clip 1
[2024-11-04 18:08:56,627] INFO: Saved track to output/track_1/output_1.mp4
[2024-11-04 18:08:56,627] INFO: Recording clip 2
[2024-11-04 18:08:56,827] ERROR: FFmpeg error: ffmpeg version 4.4.2-0ubuntu0.22.04.1 Copyright (c) 2000-2021 the FFmpeg developers
  built with gcc 11 (Ubuntu 11.2.0-19ubuntu1)
  configuration: --prefix=/usr --extra-version=0ubuntu0.22.04.1 --toolchain=hardened --libdir=/usr/lib/x86_64-linux-gnu --incdir=/usr/include/x86_64-linux-gnu --arch=amd64 --enable-gpl --disable-stripping --enable-gnutls --enable-ladspa --enable-libaom --enable-libass --enable-libbluray --enable-libbs2b --enable-libcaca --enable-libcdio --enable-libcodec2 --enable-libdav1d --enable-libflite --enable-libfontconfig --enable-libfreetype --enable-libfribidi --enable-libgme --enable-libgsm --enable-libjack --enable-libmp3lame --enable-libmysofa --enable-libopenjpeg --enable-libopenmpt --enable-libopus --enable-libpulse --enable-librabbitmq --enable-librubberband --enable-libshine --enable-libsnappy --enable-libsoxr --enable-libspeex --enable-libsrt --enable-libssh --enable-libtheora --enable-libtwolame --enable-libvidstab --enable-libvorbis --enable-libvpx --enable-libwebp --enable-libx265 --enable-libxml2 --enable-libxvid --enable-libzimg --enable-libzmq --enable-libzvbi --enable-lv2 --enable-omx --enable-openal --enable-opencl --enable-opengl --enable-sdl2 --enable-pocketsphinx --enable-librsvg --enable-libmfx --enable-libdc1394 --enable-libdrm --enable-libiec61883 --enable-chromaprint --enable-frei0r --enable-libx264 --enable-shared
  libavutil      56. 70.100 / 56. 70.100
  libavcodec     58.134.100 / 58.134.100
  libavformat    58. 76.100 / 58. 76.100
  libavdevice    58. 13.100 / 58. 13.100
  libavfilter     7.110.100 /  7.110.100
  libswscale      5.  9.100 /  5.  9.100
  libswresample   3.  9.100 /  3.  9.100
  libpostproc    55.  9.100 / 55.  9.100
Input #0, avi, from 'temp_video/video_2.avi':
  Metadata:
    software        : Lavf59.27.100
  Duration: 00:00:00.17, start: 0.000000, bitrate: 5754 kb/s
  Stream #0:0: Video: mpeg4 (Simple Profile) (XVID / 0x44495658), yuv420p, 640x480 [SAR 1:1 DAR 4:3], 30 fps, 30 tbr, 30 tbn, 30 tbc
temp_audio/audio_2.wav: No such file or directory

[2024-11-04 18:10:09,276] INFO: Video capture started with FPS: 30.0
[2024-11-04 18:10:09,318] INFO: Audio capture started.
[2024-11-04 18:10:11,321] INFO: Recording clip 1
[2024-11-04 18:10:11,928] ERROR: FFmpeg error: ffmpeg version 4.4.2-0ubuntu0.22.04.1 Copyright (c) 2000-2021 the FFmpeg developers
  built with gcc 11 (Ubuntu 11.2.0-19ubuntu1)
  configuration: --prefix=/usr --extra-version=0ubuntu0.22.04.1 --toolchain=hardened --libdir=/usr/lib/x86_64-linux-gnu --incdir=/usr/include/x86_64-linux-gnu --arch=amd64 --enable-gpl --disable-stripping --enable-gnutls --enable-ladspa --enable-libaom --enable-libass --enable-libbluray --enable-libbs2b --enable-libcaca --enable-libcdio --enable-libcodec2 --enable-libdav1d --enable-libflite --enable-libfontconfig --enable-libfreetype --enable-libfribidi --enable-libgme --enable-libgsm --enable-libjack --enable-libmp3lame --enable-libmysofa --enable-libopenjpeg --enable-libopenmpt --enable-libopus --enable-libpulse --enable-librabbitmq --enable-librubberband --enable-libshine --enable-libsnappy --enable-libsoxr --enable-libspeex --enable-libsrt --enable-libssh --enable-libtheora --enable-libtwolame --enable-libvidstab --enable-libvorbis --enable-libvpx --enable-libwebp --enable-libx265 --enable-libxml2 --enable-libxvid --enable-libzimg --enable-libzmq --enable-libzvbi --enable-lv2 --enable-omx --enable-openal --enable-opencl --enable-opengl --enable-sdl2 --enable-pocketsphinx --enable-librsvg --enable-libmfx --enable-libdc1394 --enable-libdrm --enable-libiec61883 --enable-chromaprint --enable-frei0r --enable-libx264 --enable-shared
  libavutil      56. 70.100 / 56. 70.100
  libavcodec     58.134.100 / 58.134.100
  libavformat    58. 76.100 / 58. 76.100
  libavdevice    58. 13.100 / 58. 13.100
  libavfilter     7.110.100 /  7.110.100
  libswscale      5.  9.100 /  5.  9.100
  libswresample   3.  9.100 /  3.  9.100
  libpostproc    55.  9.100 / 55.  9.100
Input #0, avi, from 'temp_video/video_1.avi':
  Metadata:
    software        : Lavf59.27.100
  Duration: 00:00:00.17, start: 0.000000, bitrate: 5385 kb/s
  Stream #0:0: Video: mpeg4 (Simple Profile) (XVID / 0x44495658), yuv420p, 640x480 [SAR 1:1 DAR 4:3], 30 fps, 30 tbr, 30 tbn, 30 tbc
temp_audio/audio_1.wav: No such file or directory

[2024-11-04 18:29:40,657] INFO: Video capture started with FPS: 0.0
[2024-11-04 18:30:20,508] INFO: Video capture started with FPS: 30.0
[2024-11-04 18:30:20,550] INFO: Audio capture started.
[2024-11-04 18:30:22,553] INFO: Recording clip 1
[2024-11-04 18:30:23,101] ERROR: FFmpeg error: ffmpeg version 4.4.2-0ubuntu0.22.04.1 Copyright (c) 2000-2021 the FFmpeg developers
  built with gcc 11 (Ubuntu 11.2.0-19ubuntu1)
  configuration: --prefix=/usr --extra-version=0ubuntu0.22.04.1 --toolchain=hardened --libdir=/usr/lib/x86_64-linux-gnu --incdir=/usr/include/x86_64-linux-gnu --arch=amd64 --enable-gpl --disable-stripping --enable-gnutls --enable-ladspa --enable-libaom --enable-libass --enable-libbluray --enable-libbs2b --enable-libcaca --enable-libcdio --enable-libcodec2 --enable-libdav1d --enable-libflite --enable-libfontconfig --enable-libfreetype --enable-libfribidi --enable-libgme --enable-libgsm --enable-libjack --enable-libmp3lame --enable-libmysofa --enable-libopenjpeg --enable-libopenmpt --enable-libopus --enable-libpulse --enable-librabbitmq --enable-librubberband --enable-libshine --enable-libsnappy --enable-libsoxr --enable-libspeex --enable-libsrt --enable-libssh --enable-libtheora --enable-libtwolame --enable-libvidstab --enable-libvorbis --enable-libvpx --enable-libwebp --enable-libx265 --enable-libxml2 --enable-libxvid --enable-libzimg --enable-libzmq --enable-libzvbi --enable-lv2 --enable-omx --enable-openal --enable-opencl --enable-opengl --enable-sdl2 --enable-pocketsphinx --enable-librsvg --enable-libmfx --enable-libdc1394 --enable-libdrm --enable-libiec61883 --enable-chromaprint --enable-frei0r --enable-libx264 --enable-shared
  libavutil      56. 70.100 / 56. 70.100
  libavcodec     58.134.100 / 58.134.100
  libavformat    58. 76.100 / 58. 76.100
  libavdevice    58. 13.100 / 58. 13.100
  libavfilter     7.110.100 /  7.110.100
  libswscale      5.  9.100 /  5.  9.100
  libswresample   3.  9.100 /  3.  9.100
  libpostproc    55.  9.100 / 55.  9.100
Input #0, avi, from 'temp_video/video_1.avi':
  Metadata:
    software        : Lavf59.27.100
  Duration: 00:00:00.17, start: 0.000000, bitrate: 5326 kb/s
  Stream #0:0: Video: mpeg4 (Simple Profile) (XVID / 0x44495658), yuv420p, 640x480 [SAR 1:1 DAR 4:3], 30 fps, 30 tbr, 30 tbn, 30 tbc
temp_audio/audio_1.wav: No such file or directory

[2024-11-04 18:31:51,340] INFO: Video capture started with FPS: 30.0
[2024-11-04 18:31:51,375] INFO: Audio capture started.
[2024-11-04 18:31:53,378] INFO: Recording clip 1
[2024-11-04 18:31:53,978] INFO: Saved track to output/track_1/output_1.mp4
[2024-11-04 18:31:53,979] INFO: Recording clip 2
[2024-11-04 18:31:54,212] INFO: Saved track to output/track_2/output_2.mp4
[2024-11-04 18:31:54,213] INFO: Recording clip 3
[2024-11-04 18:31:54,465] INFO: Saved track to output/track_3/output_3.mp4
[2024-11-04 18:31:54,465] INFO: Recording clip 4
[2024-11-04 18:31:54,726] INFO: Saved track to output/track_4/output_4.mp4
[2024-11-04 18:31:54,726] INFO: Starting the merging of all video clips into a final video.
[2024-11-04 18:31:54,766] INFO: Final merged video saved to output/final_output.mp4
[2024-11-04 18:31:54,774] INFO: Resources released. Exiting.
[2024-11-04 18:32:48,283] INFO: Video capture started with FPS: 30.0
[2024-11-04 18:32:48,328] INFO: Audio capture started.
[2024-11-04 18:32:50,330] INFO: Recording clip 1
[2024-11-04 18:32:51,004] ERROR: FFmpeg error: ffmpeg version 4.4.2-0ubuntu0.22.04.1 Copyright (c) 2000-2021 the FFmpeg developers
  built with gcc 11 (Ubuntu 11.2.0-19ubuntu1)
  configuration: --prefix=/usr --extra-version=0ubuntu0.22.04.1 --toolchain=hardened --libdir=/usr/lib/x86_64-linux-gnu --incdir=/usr/include/x86_64-linux-gnu --arch=amd64 --enable-gpl --disable-stripping --enable-gnutls --enable-ladspa --enable-libaom --enable-libass --enable-libbluray --enable-libbs2b --enable-libcaca --enable-libcdio --enable-libcodec2 --enable-libdav1d --enable-libflite --enable-libfontconfig --enable-libfreetype --enable-libfribidi --enable-libgme --enable-libgsm --enable-libjack --enable-libmp3lame --enable-libmysofa --enable-libopenjpeg --enable-libopenmpt --enable-libopus --enable-libpulse --enable-librabbitmq --enable-librubberband --enable-libshine --enable-libsnappy --enable-libsoxr --enable-libspeex --enable-libsrt --enable-libssh --enable-libtheora --enable-libtwolame --enable-libvidstab --enable-libvorbis --enable-libvpx --enable-libwebp --enable-libx265 --enable-libxml2 --enable-libxvid --enable-libzimg --enable-libzmq --enable-libzvbi --enable-lv2 --enable-omx --enable-openal --enable-opencl --enable-opengl --enable-sdl2 --enable-pocketsphinx --enable-librsvg --enable-libmfx --enable-libdc1394 --enable-libdrm --enable-libiec61883 --enable-chromaprint --enable-frei0r --enable-libx264 --enable-shared
  libavutil      56. 70.100 / 56. 70.100
  libavcodec     58.134.100 / 58.134.100
  libavformat    58. 76.100 / 58. 76.100
  libavdevice    58. 13.100 / 58. 13.100
  libavfilter     7.110.100 /  7.110.100
  libswscale      5.  9.100 /  5.  9.100
  libswresample   3.  9.100 /  3.  9.100
  libpostproc    55.  9.100 / 55.  9.100
Input #0, avi, from 'temp_video/video_1.avi':
  Metadata:
    software        : Lavf59.27.100
  Duration: 00:00:00.17, start: 0.000000, bitrate: 6401 kb/s
  Stream #0:0: Video: mpeg4 (Simple Profile) (XVID / 0x44495658), yuv420p, 640x480 [SAR 1:1 DAR 4:3], 30 fps, 30 tbr, 30 tbn, 30 tbc
temp_audio/audio_1.wav: No such file or directory

[2024-11-04 18:33:47,279] INFO: Video capture started with FPS: 30.0
[2024-11-04 18:33:47,320] INFO: Audio capture started.
[2024-11-04 18:33:49,323] INFO: Recording clip 1
[2024-11-04 18:33:49,926] INFO: Saved track to output/track_1/output_1.mp4
[2024-11-04 18:33:49,926] INFO: Recording clip 2
[2024-11-04 18:33:50,178] INFO: Saved track to output/track_2/output_2.mp4
[2024-11-04 18:33:50,179] INFO: Recording clip 3
[2024-11-04 18:33:50,476] INFO: Saved track to output/track_3/output_3.mp4
[2024-11-04 18:33:50,476] INFO: Recording clip 4
[2024-11-04 18:33:50,770] INFO: Saved track to output/track_4/output_4.mp4
[2024-11-04 18:33:50,770] INFO: Starting the merging of all video clips into a final video.
[2024-11-04 18:33:50,805] INFO: Final merged video saved to output/final_output.mp4
[2024-11-04 18:33:50,823] INFO: Resources released. Exiting.
[2024-11-04 19:07:37,320] INFO: Video capture started with FPS: 30.0
[2024-11-04 19:07:37,364] INFO: Audio capture started.
[2024-11-04 19:07:39,366] INFO: Recording clip 1
[2024-11-04 19:07:40,001] INFO: Saved track to output/track_1/output_1.mp4
[2024-11-04 19:07:40,001] INFO: Recording clip 2
[2024-11-04 19:07:40,249] INFO: Saved track to output/track_2/output_2.mp4
[2024-11-04 19:07:40,250] INFO: Recording clip 3
[2024-11-04 19:07:40,501] INFO: Saved track to output/track_3/output_3.mp4
[2024-11-04 19:07:40,501] INFO: Recording clip 4
[2024-11-04 19:07:40,752] INFO: Saved track to output/track_4/output_4.mp4
[2024-11-04 19:07:40,753] INFO: Starting the merging of all video clips into a final video.
[2024-11-04 19:07:40,788] INFO: Final merged video saved to output/final_output.mp4
[2024-11-04 19:07:40,799] INFO: Resources released. Exiting.
[2024-11-04 19:07:54,216] INFO: Video capture started with FPS: 30.0
[2024-11-04 19:07:54,256] INFO: Audio capture started.
[2024-11-04 19:07:56,258] INFO: Recording clip 1
[2024-11-04 19:07:58,215] INFO: Saved track to output/track_1/output_1.mp4
[2024-11-04 19:07:58,215] INFO: Recording clip 2
[2024-11-04 19:07:59,783] INFO: Saved track to output/track_2/output_2.mp4
[2024-11-04 19:07:59,784] INFO: Recording clip 3
[2024-11-04 19:08:01,318] INFO: Saved track to output/track_3/output_3.mp4
[2024-11-04 19:08:01,319] INFO: Recording clip 4
[2024-11-04 19:08:02,837] INFO: Saved track to output/track_4/output_4.mp4
[2024-11-04 19:08:02,837] INFO: Starting the merging of all video clips into a final video.
[2024-11-04 19:08:02,877] INFO: Final merged video saved to output/final_output.mp4
[2024-11-04 19:08:02,907] INFO: Resources released. Exiting.
[2024-11-04 19:09:08,317] INFO: Video capture started with FPS: 20.0
[2024-11-04 19:09:08,361] INFO: Audio capture started.
[2024-11-04 19:09:10,362] INFO: Recording clip 1
[2024-11-04 19:09:12,386] INFO: Saved track to output/track_1/output_1.mp4
[2024-11-04 19:09:12,386] INFO: Recording clip 2
[2024-11-04 19:09:13,970] INFO: Saved track to output/track_2/output_2.mp4
[2024-11-04 19:09:13,971] INFO: Recording clip 3
[2024-11-04 19:09:15,431] INFO: Saved track to output/track_3/output_3.mp4
[2024-11-04 19:09:15,431] INFO: Recording clip 4
[2024-11-04 19:09:16,957] INFO: Saved track to output/track_4/output_4.mp4
[2024-11-04 19:09:16,957] INFO: Starting the merging of all video clips into a final video.
[2024-11-04 19:09:17,002] INFO: Final merged video saved to output/final_output.mp4
[2024-11-04 19:09:17,023] INFO: Resources released. Exiting.
[2024-11-04 19:10:04,349] INFO: Video capture started with FPS: 20.0
[2024-11-04 19:10:04,389] INFO: Audio capture started.
[2024-11-04 19:10:06,392] INFO: Recording clip 1
[2024-11-04 19:10:08,351] INFO: Saved track to output/track_1/output_1.mp4
[2024-11-04 19:10:08,351] INFO: Recording clip 2
[2024-11-04 19:10:09,904] INFO: Saved track to output/track_2/output_2.mp4
[2024-11-04 19:10:09,905] INFO: Recording clip 3
[2024-11-04 19:10:11,409] INFO: Saved track to output/track_3/output_3.mp4
[2024-11-04 19:10:11,410] INFO: Recording clip 4
[2024-11-04 19:10:12,912] INFO: Saved track to output/track_4/output_4.mp4
[2024-11-04 19:10:12,912] INFO: Starting the merging of all video clips into a final video.
[2024-11-04 19:10:12,952] INFO: Final merged video saved to output/final_output.mp4
[2024-11-04 19:10:12,972] INFO: Resources released. Exiting.
